<svg xmlns="http://www.w3.org/2000/svg" viewBox="0 0 243.01 86.2"><defs><style>.cls-1{fill:#fff;}</style></defs><g id="Calque_2" data-name="Calque 2"><g id="Calque_1-2" data-name="Calque 1"><path class="cls-1" d="M8.57,1.44l2.22,30c.14,1.91,3.14,1.93,3,0l-2.22-30c-.14-1.91-3.14-1.93-3,0Z"/><path class="cls-1" d="M1.87,18.81a55.49,55.49,0,0,1,24.06-.42c1.88.39,2.69-2.5.8-2.89a59.09,59.09,0,0,0-25.66.42c-1.88.45-1.08,3.35.8,2.89Z"/><path class="cls-1" d="M53.75,36.85a36.91,36.91,0,0,1,7.09-24.26C62,11,63.43,9,65.33,8.27s3,.69,3.72,2.12a23.79,23.79,0,0,1,1.77,6.09A72.66,72.66,0,0,1,72,23.79a77.93,77.93,0,0,1-.11,17c-.23,1.91,2.77,1.89,3,0A77,77,0,0,0,75,23.56a78.26,78.26,0,0,0-1.34-8.34,24.08,24.08,0,0,0-2.13-6.64,6.28,6.28,0,0,0-4.75-3.46c-2.36-.21-4.41,1.22-6,2.85a37.37,37.37,0,0,0-7.56,12.42,39.29,39.29,0,0,0-2.47,16.46c.12,1.91,3.12,1.93,3,0Z"/><path class="cls-1" d="M53.41,26.07a147,147,0,0,1,20.34.85,1.5,1.5,0,0,0,0-3,147,147,0,0,0-20.34-.85c-1.92.05-1.93,3.05,0,3Z"/><path class="cls-1" d="M85.73,20.77A151.1,151.1,0,0,1,87.89,49l3-.4A62.45,62.45,0,0,1,88.73,20c.31-1.8.73-3.95,2.36-5s4-.81,5.78-.29a7.11,7.11,0,0,1,4.62,3.51,4.12,4.12,0,0,1-1,5.11c-1.89,1.48-4.63,2.13-6.87,2.84a77.63,77.63,0,0,1-8.33,2.13A1.51,1.51,0,0,0,84.9,31c10.86,4.66,22.26,9.63,29.74,19.18,1.19,1.52,3.3-.62,2.12-2.12-7.63-9.75-19.27-14.9-30.35-19.65l-.36,2.74a78.18,78.18,0,0,0,8.79-2.27c2.51-.81,5.33-1.6,7.44-3.23,4.27-3.3,2.93-9.37-1.09-12.22C97.45,10.76,90.88,10,87.79,14c-1.51,2-1.88,4.53-2.21,6.93A66.09,66.09,0,0,0,85,29.71a66.83,66.83,0,0,0,3,19.71,1.51,1.51,0,0,0,3-.4A156.23,156.23,0,0,0,88.63,20c-.33-1.9-3.22-1.09-2.9.8Z"/><path class="cls-1" d="M113.32,22.39l26-1c1.92-.08,1.93-3.08,0-3l-26,1c-1.92.08-1.93,3.08,0,3Z"/><path class="cls-1" d="M128.28,20.66a68.86,68.86,0,0,1,1.53,25.25c-.15,1.21-.48,2.52.16,3.65a2.62,2.62,0,0,0,2.86,1.26c1.91-.27,1.1-3.16-.79-2.89.48.14.66,0,.56-.45l.12-.87c.08-.62.16-1.25.23-1.88.11-1.1.21-2.2.27-3.31a69.11,69.11,0,0,0,0-7.34,72.74,72.74,0,0,0-2.09-14.22c-.46-1.87-3.36-1.07-2.89.8Z"/><path class="cls-1" d="M150.43,29.52a170.2,170.2,0,0,1-4.24,19.73,1.5,1.5,0,0,0,2.89.8,172.8,172.8,0,0,0,4.25-19.73,1.56,1.56,0,0,0-1.05-1.85,1.52,1.52,0,0,0-1.85,1.05Z"/><path class="cls-1" d="M152.16,17.9l-.2-.48a1.13,1.13,0,0,0-.27-.52,1,1,0,0,0-.42-.38,1.12,1.12,0,0,0-.56-.18,1.08,1.08,0,0,0-.59,0l-.36.15a1.4,1.4,0,0,0-.54.54l-.15.36a1.51,1.51,0,0,0,0,.79l.2.48a1,1,0,0,0,.27.51,1,1,0,0,0,.42.39,1.09,1.09,0,0,0,.55.18,1.22,1.22,0,0,0,.6,0l.36-.15a1.4,1.4,0,0,0,.54-.54l.15-.36a1.51,1.51,0,0,0,0-.79Z"/><path class="cls-1" d="M180.08,34.16a6.4,6.4,0,0,0,1.81-6.37,7.85,7.85,0,0,0-4.7-5.1c-2.17-.93-5.09-1.35-7.16.07-2.22,1.54-2.18,4.41-1.84,6.81.72,5.15,3,9.87,5.15,14.57s4.08,9.49,3.62,14.59a5.63,5.63,0,0,1-1.49,3.76,4.67,4.67,0,0,1-4,.61,8.57,8.57,0,0,1-6.1-5.08c-.7-1.77-3.61-1-2.89.8,1.76,4.45,6.3,7.86,11.24,7.41,5.72-.53,6.71-6.57,6.18-11.27C179.31,50,177.22,45.5,175.2,41a74,74,0,0,1-2.87-7A18.92,18.92,0,0,1,171,26.92c.25-3.16,4.36-2.11,6.14-.88,2,1.37,2.8,4.26.82,6-1.45,1.28.68,3.39,2.12,2.12Z"/><path class="cls-1" d="M190.61,37.84A103,103,0,0,0,201.35,40c1.74.25,3.48.47,5.23.64l2.83.24a7.69,7.69,0,0,1,1.07.07l.36.1c.16.1.13,0-.09-.12a1.5,1.5,0,0,0,2.89-.8c-.47-1.79-2.22-2.12-3.82-2.23-2-.14-4-.32-6.06-.57a100.16,100.16,0,0,1-12.36-2.37c-1.87-.47-2.67,2.42-.79,2.9Z"/><path class="cls-1" d="M201.09,41.26c.93,2,.76,4.29.47,6.41s-.71,4.35-1.13,6.51c-.88,4.54-2,9-3.18,13.5a1.52,1.52,0,0,0,1.45,1.9,3.23,3.23,0,0,0,3.05-1.69,1.5,1.5,0,0,0-2.59-1.51c-.16.28-.11.22-.46.2l1.44,1.9q2-7.38,3.45-14.92c.83-4.49,2.13-9.47.09-13.82-.82-1.74-3.4-.22-2.59,1.52Z"/><path class="cls-1" d="M242.93,50c-1.53-5-3.83-10.76-9.66-11.67-5.47-.85-8.39,4.06-8.88,8.81-.61,5.79,1.3,11.79,2.45,17.4A45.05,45.05,0,0,1,228,73.65c0,2.54-.07,6-2,8s-4.75,1.9-7.05,1.18c-3.14-1-5.62-3.43-8-5.64-1.4-1.33-3.52.78-2.12,2.12,3.75,3.55,8.18,7.45,13.73,6.87a8.79,8.79,0,0,0,6.07-3c1.71-2.13,2.12-5,2.29-7.7.37-6-1.27-11.85-2.47-17.66A45.21,45.21,0,0,1,227.3,49a10.05,10.05,0,0,1,1.6-6.17c1.75-2.27,4.8-1.85,6.84-.21,2.47,2,3.41,5.28,4.3,8.17.57,1.84,3.46,1.05,2.89-.8Z"/></g></g></svg>