<svg xmlns="http://www.w3.org/2000/svg" viewBox="0 0 225.8 142.51"><defs><style>.cls-1{fill:#fff;}</style></defs><g id="Calque_2" data-name="Calque 2"><g id="Calque_1-2" data-name="Calque 1"><path class="cls-1" d="M145.69,9.16C122.13,6.84,98.05,5.9,74.78,11.07c-19.5,4.33-38.47,13.12-52.7,27.38C8.22,52.35-.68,71.88,0,91.69c.36,9.9,3.1,20.06,8.9,28.19,6,8.36,14.84,13.38,24.51,16.37s19.93,4.46,30,5.4a199.21,199.21,0,0,0,30.41.51,206.54,206.54,0,0,0,59.6-12.53,193.36,193.36,0,0,0,53.09-29.53c7.82-6.23,15-13.87,17.82-23.7s1.21-20.67-2.86-30c-7.68-17.64-23.95-30.07-41.35-37.24-20.82-8.59-43.8-9.57-66-9-5.76.15-11.51.4-17.27.66-1.92.08-1.93,3.08,0,3,22.72-1,46-2.11,68.23,3.51,17.7,4.47,35,13.54,46.36,28.1C217.4,43,221.7,52.27,222.62,62a36.43,36.43,0,0,1-1.45,14.6,36.25,36.25,0,0,1-7.28,12.5c-6.39,7.39-14.7,13.14-22.86,18.41a197.34,197.34,0,0,1-26,14.15,202.5,202.5,0,0,1-56.64,16.12,197.4,197.4,0,0,1-59-1c-9.53-1.63-19.33-3.8-27.64-9-8.47-5.25-14-13.7-16.65-23.19C-.21,86.06,5.06,65.9,16,50.37c11.23-16,28.66-26.84,47-32.94,21.16-7,43.71-7.93,65.8-6.63,5.65.33,11.29.81,16.92,1.36,1.92.19,1.91-2.81,0-3Z"/></g></g></svg>