<?xml version="1.0" encoding="UTF-8"?><svg xmlns="http://www.w3.org/2000/svg" viewBox="0 0 61.57 61.57"><defs><style>.d{fill:#fff;}</style></defs><g id="a"/><g id="b"><g id="c"><g><path class="d" d="M51.31,0H10.26C4.59,0,0,4.59,0,10.26V51.31c0,5.67,4.59,10.26,10.26,10.26H51.31c5.67,0,10.26-4.59,10.26-10.26V10.26c0-5.67-4.59-10.26-10.26-10.26Zm5.13,51.31c0,2.83-2.3,5.13-5.13,5.13H10.26c-2.83,0-5.13-2.3-5.13-5.13V10.26c0-2.83,2.3-5.13,5.13-5.13H51.31c2.83,0,5.13,2.3,5.13,5.13V51.31Z"/><path class="d" d="M30.78,15.39c-8.5,0-15.39,6.89-15.39,15.39s6.89,15.39,15.39,15.39,15.39-6.89,15.39-15.39-6.89-15.39-15.39-15.39Zm0,25.65c-5.67,0-10.26-4.59-10.26-10.26s4.59-10.26,10.26-10.26,10.26,4.59,10.26,10.26-4.59,10.26-10.26,10.26Z"/><circle class="d" cx="47.46" cy="14.11" r="3.85"/></g></g></g></svg>