<svg xmlns="http://www.w3.org/2000/svg" viewBox="0 0 435.98 22.17"><g id="Calque_2" data-name="Calque 2"><g id="Calque_1-2" data-name="Calque 1"><path d="M3,16.7C30.86,19.8,58.84,22.89,86.92,22s55.69-5.13,83.48-8A1490.45,1490.45,0,0,1,338.61,6.06Q385.85,6.51,433,10l-1.51-5.59L420.61,9.88c-3.45,1.75-.41,6.93,3,5.18l10.86-5.52C437.33,8.09,435.72,4.15,433,4A1491.82,1491.82,0,0,0,264.6,1.2q-42.09,1.7-84,5.77c-27.84,2.7-55.56,7-83.5,8.59C65.57,17.42,34.27,14.18,3,10.7c-1.62-.18-3,1.51-3,3a3.07,3.07,0,0,0,3,3Z"/></g></g></svg>