<?xml version="1.0" encoding="utf-8"?>
<!-- Generator: Adobe Illustrator 26.0.3, SVG Export Plug-In . SVG Version: 6.00 Build 0)  -->
<svg version="1.1" id="レイヤー_1" xmlns="http://www.w3.org/2000/svg" xmlns:xlink="http://www.w3.org/1999/xlink" x="0px"
	 y="0px" viewBox="0 0 432.82 84.18" style="enable-background:new 0 0 432.82 84.18;" xml:space="preserve">
<g>
	<path d="M392.69,75.42c0,0-0.33,0-0.51,0c-18.52,0-33.5-14.98-33.5-33.5l75.76-0.17C434.28,19,415.93,0.52,393.29,0.02V0.01
		l-0.51,0c-0.14,0-0.28-0.01-0.43-0.01c-0.14,0-0.28,0.01-0.42,0.01L344.89,0c-23.23,0-42.09,18.86-42.09,42.09
		c0,18.35-15.15,33.33-33.67,33.33h-6.58V42.09c0-23.06-19.19-41.92-42.09-41.92c-13.81,0-26.1,6.73-33.67,17V0h-8.25v84.18h8.25
		V42.09c0-18.52,14.98-33.5,33.5-33.5c18.52,0,33.5,14.98,33.5,33.5v42.09h0.03h8.73h7.84v-0.03c22.72-0.58,40.82-19.2,40.82-42.06
		c0-18.35,15.32-33.33,33.5-33.33l22.2-0.15c-10.04,7.69-16.49,19.83-16.49,33.48c0,23.23,18.69,41.92,41.92,41.92
		c0.06,0,1.31-0.02,1.68-0.04c18.53-0.65,33.91-13.2,38.78-30.28h-8.75C419.31,66.39,407.07,75.42,392.69,75.42z M390.64,8.45
		l2.5-0.02c15.23,0.42,27.74,10.88,31.37,25.07h-64.82C363.28,19.5,375.67,9.13,390.64,8.45z"/>
	<path d="M163.15,53.69c-4.76,12.7-17,21.73-31.38,21.73c0,0-0.33,0-0.51,0c-18.52,0-33.5-14.98-33.5-33.5l40.38-0.09v-0.04h19.79
		l15.59-0.03c-0.16-22.44-18.02-40.73-40.22-41.7V0H82.33C59.09,0,40.24,18.86,40.24,42.09c0,18.35-15.15,33.33-33.67,33.33H0v8.75
		h6.73c23.23,0,41.92-18.86,41.92-42.09c0-18.35,15.32-33.33,33.5-33.33l23.84-0.13c-10.02,7.69-16.47,19.82-16.47,33.46
		c0,23.23,18.69,41.92,41.92,41.92c0.06,0,1.31-0.02,1.68-0.04c18.53-0.65,33.91-13.2,38.78-30.28H163.15z M128.95,8.5l4.28-0.02
		C148,9.32,160.05,19.63,163.6,33.5H98.78C102.3,19.75,114.33,9.49,128.95,8.5z"/>
</g>
</svg>
